<svg aria-hidden="true" style="position:absolute;width:0;height:0" xmlns="http://www.w3.org/2000/svg" overflow="hidden"><defs><symbol id="moon" viewBox="0 0 32 32"><path fill="currentColor" d="M17.701 32a15.97 15.97 0 0012.429-5.925c.442-.544-.04-1.339-.723-1.209-7.763 1.478-14.891-4.474-14.891-12.31 0-4.514 2.416-8.665 6.344-10.9.605-.345.453-1.262-.235-1.389-.879-.17-1.89-.267-2.923-.268-8.832 0-16 7.157-16 16 0 8.832 7.157 16 16 16z"/></symbol><symbol id="sun" viewBox="0 0 32 32"><path fill="currentColor" d="M16 10c-3.306 0-6 2.694-6 6s2.694 6 6 6 6-2.694 6-6-2.694-6-6-6zm15.4 5.031l-5.919-2.956L27.575 5.8c.281-.85-.525-1.656-1.369-1.369l-6.275 2.094L16.969.6c-.4-.8-1.537-.8-1.938 0l-2.956 5.919-6.281-2.094c-.85-.281-1.656.525-1.369 1.369l2.094 6.275L.6 15.032c-.8.4-.8 1.538 0 1.938l5.919 2.956-2.094 6.281c-.281.85.525 1.656 1.369 1.369l6.275-2.094 2.956 5.919c.4.8 1.538.8 1.938 0l2.956-5.919 6.275 2.094c.85.281 1.656-.525 1.369-1.369l-2.094-6.275 5.919-2.956c.813-.406.813-1.544.012-1.944zm-9.744 6.625c-3.119 3.119-8.194 3.119-11.313 0s-3.119-8.194 0-11.313c3.119-3.119 8.194-3.119 11.313 0s3.119 8.194 0 11.313z"/></symbol><symbol id="icon-Logo1" viewBox="0 0 32 32"><path fill="var(--color2, #1f1c1d)" stroke="var(--color2, #1f1c1d)" d="M6.073 13.568c.27.228.768 1.124 1.451 2.631 1.081 2.347 1.28 2.66 1.65 2.517.228-.085 1.92-3.47 1.92-3.84 0-.512-.284-.142-.996 1.294l-.754 1.536-.313-.711c-1.323-2.916-1.479-3.2-1.948-3.484-.256-.156-.683-.284-.939-.284H5.66l.412.341zM11.477 13.483c-.128.142-.242.37-.242.484 0 .299 1.82 4.395 2.062 4.651.327.327.626.057 1.109-.967.256-.555.484-.996.526-.996s.213.299.384.668c.441.91 1.081 1.323 2.233 1.408.811.071.996.043 1.55-.284.74-.441 1.422-1.266 1.294-1.579-.114-.284-.341-.299-.341-.014 0 .114-.27.498-.597.839-.64.654-1.337.91-2.02.74-.512-.128-1.237-.782-1.451-1.323-.299-.711-.256-1.877.1-2.46.384-.626.626-.811 1.308-.996 1.152-.327 2.005.341 3.072 2.418.839 1.621 1.223 2.119 1.92 2.432 1.024.469 2.503.284 3.257-.412.796-.711 1.109-2.318.626-3.243-.555-1.067-1.849-1.735-3.072-1.564-1.095.156-2.19 1.052-1.906 1.579.114.185.199.128.569-.327.882-1.095 1.991-1.266 3.015-.498 1.692 1.294 1.067 4.224-.953 4.423-.626.057-.74.014-1.195-.384-.299-.256-.839-1.081-1.323-2.005-1.095-2.091-2.005-2.844-3.428-2.844-1.508 0-2.418.796-3.399 2.972-.555 1.266-.725 1.536-.839 1.337-.071-.128-.512-1.109-.967-2.162-.455-1.067-.882-1.977-.939-2.034-.071-.071-.228 0-.356.142z"/></symbol><symbol id="icon-Logo2" viewBox="0 0 32 32"><path fill="var(--color2, #000000)" stroke="var(--color2, #000000)" d="M15.537 7.934c-3.385.463-6.215 2.843-7.299 6.149-.291.873-.344 1.309-.357 2.578-.013 2.605.701 4.337 2.565 6.228.912.926 1.336 1.243 2.248 1.693 1.653.793 2.526.979 4.364.912 2.459-.093 4.152-.833 5.884-2.552 1.679-1.679 2.433-3.372 2.539-5.765.093-1.772-.159-3.015-.926-4.522-.767-1.534-2.248-3.015-3.795-3.769-1.732-.86-3.531-1.177-5.223-.952zm3.28 3.689c1.005.397 2.301 1.587 2.777 2.565 1.428 2.922.291 6.149-2.645 7.537-2.658 1.243-5.95.04-7.193-2.605-1.468-3.147.053-6.612 3.385-7.696.82-.278 2.737-.172 3.676.198z"/></symbol><symbol id="icon-Logo3" viewBox="0 0 32 32"><path fill="var(--color2, #4f4f4f)" stroke="var(--color2, #4f4f4f)" d="M5.011 14.279c-.604.408-.785.996-.785 2.475 0 1.102.045 1.358.226 1.358s.226-.226.226-1.117c0-1.736.332-2.355 1.268-2.355.981 0 1.298.559 1.298 2.264 0 .966.045 1.208.226 1.208s.226-.257.226-1.358c0-1.977-.468-2.717-1.736-2.717-.332 0-.77.106-.951.242zM9.63 14.34c-.543.423-.921 1.434-.8 2.113.317 1.691 2.249 2.309 3.306 1.041.755-.891.649-2.325-.226-3.064-.589-.498-1.706-.543-2.279-.091zm2.068.679c.287.272.377.528.377 1.057 0 .906-.483 1.434-1.313 1.434-.649 0-.785-.075-1.147-.604-.438-.634-.242-1.691.408-2.143.377-.257 1.313-.121 1.675.257zM14.581 14.355c-.86.679-1.102 1.902-.543 2.808 1.087 1.781 3.502 1.041 3.502-1.087 0-.8-.438-1.6-1.011-1.857-.619-.287-1.494-.226-1.947.136zm2.038.679c.528.559.513 1.57-.045 2.113-1.026 1.041-2.611-.06-2.204-1.525.272-.996 1.54-1.343 2.249-.589zM19.336 14.43c-.558.468-.77 1.162-.77 2.581 0 .981.03 1.102.287 1.102s.287-.136.347-1.419c.06-1.691.272-2.053 1.192-2.053.966 0 1.192.392 1.192 2.068 0 1.283.03 1.404.287 1.404s.287-.136.347-1.419c.03-1.132.106-1.479.332-1.736.408-.453 1.298-.423 1.721.03.287.302.332.528.332 1.736 0 1.283.015 1.389.302 1.389.272 0 .302-.106.302-1.343 0-1.66.272-2.128 1.208-2.128.981 0 1.208.377 1.208 2.068 0 1.298.015 1.404.302 1.404.272 0 .302-.106.302-1.283 0-1.389-.317-2.325-.891-2.642-.543-.287-1.464-.181-1.947.226l-.453.377-.423-.377c-.558-.513-1.525-.528-2.128-.015l-.423.362-.423-.362c-.604-.513-1.585-.498-2.204.03z"/></symbol><symbol id="icon-Logo4" viewBox="0 0 32 32"><path  fill="var(--color2, #000000)" stroke="var(--color2, #000000)" d="M5.524 9.345c-.064.048-.111 1.672-.111 3.582v3.471h1.751v-4.346l.892 1.385c.494.748.939 1.369 1.003 1.369.048 0 .509-.637 1.003-1.401l.923-1.385v.669c0 .382.048.685.127.685.255-.016 1.385-1.656 1.465-2.117l.08-.509 1.162-.048c.621-.032 1.146 0 1.146.048s-.892 1.162-1.99 2.452c-1.449 1.719-1.99 2.468-1.99 2.786v.414h6.368v-2.022l1.242-.096c.669-.032 1.242-.064 1.274-.032.016.016-.143.43-.366.939-.223.494-.398.971-.398 1.051 0 .096.35.159.78.159h.78l.334-.796.35-.812 2.882.096.573 1.433 1.783.096-.541-1.242c-.287-.685-.971-2.293-1.528-3.598l-.987-2.34h-1.497l-.701 1.656-.271-.382c-.812-1.162-1.369-1.274-6.177-1.274h-3.916l-.907 1.433c-.494.78-.955 1.417-1.019 1.385-.064-.016-.494-.637-.955-1.385l-.844-1.353-.812-.048c-.446-.016-.844.016-.907.08zm13.899 1.799c.78.78.064 1.751-1.29 1.751h-.78v-2.07h.876c.669 0 .955.08 1.194.318z"/></symbol><symbol id="icon-Logo5" viewBox="0 0 43 32"><path  fill="var(--color2, #8e8b8f)" stroke="var(--color2, #d0d0d0)" d="M5.524 9.345c-.064.048-.111 1.672-.111 3.582v3.471h1.751v-4.346l.892 1.385c.494.748.939 1.369 1.003 1.369.048 0 .509-.637 1.003-1.401l.923-1.385v.669c0 .382.048.685.127.685.255-.016 1.385-1.656 1.465-2.117l.08-.509 1.162-.048c.621-.032 1.146 0 1.146.048s-.892 1.162-1.99 2.452c-1.449 1.719-1.99 2.468-1.99 2.786v.414h6.368v-2.022l1.242-.096c.669-.032 1.242-.064 1.274-.032.016.016-.143.43-.366.939-.223.494-.398.971-.398 1.051 0 .096.35.159.78.159h.78l.334-.796.35-.812 2.882.096.573 1.433 1.783.096-.541-1.242c-.287-.685-.971-2.293-1.528-3.598l-.987-2.34h-1.497l-.701 1.656-.271-.382c-.812-1.162-1.369-1.274-6.177-1.274h-3.916l-.907 1.433c-.494.78-.955 1.417-1.019 1.385-.064-.016-.494-.637-.955-1.385l-.844-1.353-.812-.048c-.446-.016-.844.016-.907.08zm13.899 1.799c.78.78.064 1.751-1.29 1.751h-.78v-2.07h.876c.669 0 .955.08 1.194.318z"/></symbol><symbol id="icon-Logo6" viewBox="0 0 32 32"><path  fill="var(--color2, #000000)" stroke="var(--color2, #242424)" d="M31.168 7.769c.055.093.148.185.203.185.037 0 .074-.093.074-.185 0-.111-.093-.185-.203-.185-.093 0-.129.074-.074.185zM31.852 8.139c0 .351.037.499.093.314a1.899 1.899 0 000-.647c-.055-.166-.093-.019-.093.333zM5.272 9.101c-.259.24-.555.758-.647 1.165-.222.962-.222 9.212 0 10.173.407 1.794 2.479 2.127 3.311.518.296-.573.277-10.599-.019-11.246-.444-.999-1.831-1.313-2.645-.61zm1.664 6.252v5.457l-.499.055c-.407.055-.555-.037-.703-.425-.24-.647-.24-9.526 0-10.173.148-.388.296-.481.703-.425l.499.056v5.457zM18.886 8.953c-.758.425-.925.98-.943 3.034 0 2.201.111 2.497 1.461 3.829l.943.906v1.998c0 1.683-.055 1.998-.314 2.164a.67.67 0 01-.647 0c-.277-.148-.333-.444-.333-1.905V17.24l-.573-.074-.573-.093.074 2.016c.055 1.961.074 2.053.573 2.479.758.647 1.683.61 2.368-.129.536-.573.536-.61.536-2.775v-2.22l-2.423-2.571.055-1.979.055-1.998h1.11l.185 3.699.518.056.499.056v-1.776c0-1.979-.259-2.775-1.036-3.052-.629-.24-.999-.222-1.535.074zM27.912 9.23c-.462.462-.536.703-.555 1.572-.018.573-.018 1.258-.037 1.535-.018.425.074.536.481.573.499.056.499.056.499-1.165 0-1.443.222-1.942.814-1.942.573 0 .666.296.666 2.053 0 1.387-.074 1.646-1.184 4.384-1.017 2.479-1.202 3.089-1.239 4.199l-.055 1.295 3.588.111v-.481c0-.444-.037-.462-1.313-.462h-1.332l.111-.795c.055-.425.629-1.979 1.258-3.459 1.054-2.479 1.147-2.812 1.221-4.365.111-2.035-.111-2.923-.869-3.311-.814-.425-1.443-.351-2.053.259zM9.249 15.353v6.474h1.165c.777 0 1.295-.093 1.591-.296.851-.61.943-1.202.943-6.178s-.092-5.568-.943-6.178c-.296-.203-.814-.296-1.591-.296H9.249v6.474zm2.219-5.18c.351.351.37.61.37 5.142 0 4.069-.037 4.828-.296 5.179-.185.277-.444.407-.684.37-.407-.055-.407-.093-.462-5.327-.018-2.904 0-5.364.056-5.494.129-.351.592-.296 1.017.129zM14.058 15.353v6.474h1.48c1.461 0 1.48 0 1.48-.462 0-.425-.055-.462-.925-.462h-.925v-5.179h.74c.666 0 .74-.056.74-.462 0-.425-.074-.462-.74-.462h-.74V9.806h.925c.869 0 .925-.037.925-.462 0-.462-.018-.462-1.48-.462h-1.48v6.474zM22.566 15.334v6.493h1.184c1.406 0 2.035-.388 2.331-1.443.24-.888.24-9.175 0-10.044-.296-1.054-.758-1.35-2.238-1.424l-1.276-.074v6.492zm2.146-5.272c.333.24.351.555.407 5.05.037 5.235-.018 5.642-.943 5.753l-.499.055v-5.438c0-2.978.055-5.494.129-5.549.185-.203.518-.148.906.129z"/></symbol><symbol id="icon-menu" viewBox="0 0 32 32"><path fill="var(--color2, #ac8e6f)" stroke="var(--color2, #ac8e6f)"  d="M2 6h28v6H2zm0 8h28v6H2zm0 8h28v6H2z"/></symbol><symbol id="icon-arrow-up" viewBox="0 0 32 32"><path  fill="currentColor" d="M16 1L1 16h9v16h12V16h9z"/></symbol><symbol id="icon-google-plus3" viewBox="0 0 32 32"><path  fill="currentColor" d="M16 0C7.162 0 0 7.162 0 16s7.162 16 16 16 16-7.163 16-16S24.837 0 16 0zm-4 24c-4.425 0-8-3.575-8-8s3.575-8 8-8c2.162 0 3.969.787 5.363 2.094l-2.175 2.088c-.594-.569-1.631-1.231-3.188-1.231-2.731 0-4.963 2.263-4.963 5.05s2.231 5.05 4.963 5.05c3.169 0 4.356-2.275 4.538-3.45h-4.537v-2.744h7.556c.069.4.125.8.125 1.325 0 4.575-3.063 7.819-7.681 7.819zm14-8v2h-2v-2h-2v-2h2v-2h2v2h2v2h-2z"/></symbol><symbol id="icon-facebook2" viewBox="0 0 32 32"><path  fill="currentColor" d="M29 0H3C1.35 0 0 1.35 0 3v26c0 1.65 1.35 3 3 3h13V18h-4v-4h4v-2c0-3.306 2.694-6 6-6h4v4h-4c-1.1 0-2 .9-2 2v2h6l-1 4h-5v14h9c1.65 0 3-1.35 3-3V3c0-1.65-1.35-3-3-3z"/></symbol><symbol id="icon-instagram" viewBox="0 0 32 32"><path  fill="currentColor" d="M16 2.881c4.275 0 4.781.019 6.462.094 1.563.069 2.406.331 2.969.55a4.952 4.952 0 011.837 1.194 5.015 5.015 0 011.2 1.838c.219.563.481 1.412.55 2.969.075 1.688.094 2.194.094 6.463s-.019 4.781-.094 6.463c-.069 1.563-.331 2.406-.55 2.969a4.94 4.94 0 01-1.194 1.837 5.02 5.02 0 01-1.837 1.2c-.563.219-1.413.481-2.969.55-1.688.075-2.194.094-6.463.094s-4.781-.019-6.463-.094c-1.563-.069-2.406-.331-2.969-.55a4.952 4.952 0 01-1.838-1.194 5.02 5.02 0 01-1.2-1.837c-.219-.563-.481-1.413-.55-2.969-.075-1.688-.094-2.194-.094-6.463s.019-4.781.094-6.463c.069-1.563.331-2.406.55-2.969a4.964 4.964 0 011.194-1.838 5.015 5.015 0 011.838-1.2c.563-.219 1.412-.481 2.969-.55 1.681-.075 2.188-.094 6.463-.094zM16 0c-4.344 0-4.887.019-6.594.094-1.7.075-2.869.35-3.881.744-1.056.412-1.95.956-2.837 1.85a7.833 7.833 0 00-1.85 2.831C.444 6.538.169 7.7.094 9.4.019 11.113 0 11.656 0 16s.019 4.887.094 6.594c.075 1.7.35 2.869.744 3.881.413 1.056.956 1.95 1.85 2.837a7.82 7.82 0 002.831 1.844c1.019.394 2.181.669 3.881.744 1.706.075 2.25.094 6.594.094s4.888-.019 6.594-.094c1.7-.075 2.869-.35 3.881-.744 1.05-.406 1.944-.956 2.831-1.844s1.438-1.781 1.844-2.831c.394-1.019.669-2.181.744-3.881.075-1.706.094-2.25.094-6.594s-.019-4.887-.094-6.594c-.075-1.7-.35-2.869-.744-3.881a7.506 7.506 0 00-1.831-2.844A7.82 7.82 0 0026.482.843C25.463.449 24.301.174 22.601.099c-1.712-.081-2.256-.1-6.6-.1z"/><path  fill="currentColor" d="M16 7.781c-4.537 0-8.219 3.681-8.219 8.219s3.681 8.219 8.219 8.219 8.219-3.681 8.219-8.219A8.221 8.221 0 0016 7.781zm0 13.55a5.331 5.331 0 110-10.663 5.331 5.331 0 010 10.663zM26.462 7.456a1.919 1.919 0 11-3.838 0 1.919 1.919 0 013.838 0z"/></symbol><symbol id="icon-twitter" viewBox="0 0 32 32"><path fill="currentColor" d="M32 7.075a12.941 12.941 0 01-3.769 1.031 6.601 6.601 0 002.887-3.631 13.21 13.21 0 01-4.169 1.594A6.565 6.565 0 0022.155 4a6.563 6.563 0 00-6.563 6.563c0 .512.056 1.012.169 1.494A18.635 18.635 0 012.23 5.195a6.56 6.56 0 00-.887 3.3 6.557 6.557 0 002.919 5.463 6.565 6.565 0 01-2.975-.819v.081a6.565 6.565 0 005.269 6.437 6.574 6.574 0 01-2.968.112 6.588 6.588 0 006.131 4.563 13.17 13.17 0 01-9.725 2.719 18.568 18.568 0 0010.069 2.95c12.075 0 18.681-10.006 18.681-18.681 0-.287-.006-.569-.019-.85A13.216 13.216 0 0032 7.076z"/></symbol><symbol id="icon-pinterest" viewBox="0 0 32 32"><path fill="currentColor" d="M16 2.138c-7.656 0-13.863 6.206-13.863 13.863 0 5.875 3.656 10.887 8.813 12.906-.119-1.094-.231-2.781.05-3.975.25-1.081 1.625-6.887 1.625-6.887s-.412-.831-.412-2.056c0-1.925 1.119-3.369 2.506-3.369 1.181 0 1.756.887 1.756 1.95 0 1.188-.756 2.969-1.15 4.613-.331 1.381.688 2.506 2.05 2.506 2.462 0 4.356-2.6 4.356-6.35 0-3.319-2.387-5.638-5.787-5.638-3.944 0-6.256 2.956-6.256 6.019 0 1.194.456 2.469 1.031 3.163a.408.408 0 01.094.4c-.106.438-.338 1.381-.387 1.575-.063.256-.2.306-.463.188-1.731-.806-2.813-3.337-2.813-5.369 0-4.375 3.175-8.387 9.156-8.387 4.806 0 8.544 3.425 8.544 8.006 0 4.775-3.012 8.625-7.194 8.625-1.406 0-2.725-.731-3.175-1.594 0 0-.694 2.644-.863 3.294-.313 1.206-1.156 2.712-1.725 3.631 1.3.4 2.675.619 4.106.619 7.656 0 13.863-6.206 13.863-13.863 0-7.662-6.206-13.869-13.863-13.869z"/></symbol><symbol id="menu-close" viewBox="0 0 16 16"><path d="M1.26 1l13.48 14M1 14.74L15 1.26" stroke="#fff"/></symbol></defs></svg>